<?xml version="1.0" encoding="UTF-8"?><svg id="Layer_2" xmlns="http://www.w3.org/2000/svg" viewBox="0 0 300 76.15"><defs><style>.cls-1{fill:#fff;}.cls-2{fill:#109b80;}</style></defs><g id="Layer_4"><path class="cls-2" d="M43.65,41.08c0,5.09-3.95,10.73-14.45,10.73H12.04c-1.22,0-2.21-.99-2.21-2.21V16.68c0-1.22.99-2.21,2.21-2.21h15.87c8.17,0,13.41,4.12,13.41,9.65,0,2.6-1.17,6.5-6.29,7.75,5.9.7,8.62,4.93,8.62,9.21ZM27.19,22.78h-7.19v5.38h7.13c2.4,0,4.02-.98,4.02-2.69,0-1.43-1.17-2.69-3.95-2.69ZM27.97,43.49c3.63,0,5.44-1.62,5.44-3.28,0-1.53-1.62-3.28-5.44-3.28h-7.97v6.56h7.97Z"/><polygon class="cls-2" points="41.71 53.19 47.43 60.4 50.81 51.84 41.71 53.19"/><polygon class="cls-2" points="46.2 61.37 40.49 54.16 37.1 62.72 46.2 61.37"/><polygon class="cls-2" points=".57 5.98 9.14 9.33 7.76 .23 .57 5.98"/><polygon class="cls-2" points="17.87 3.36 9.3 0 10.68 9.1 17.87 3.36"/><polygon class="cls-2" points="8.57 10.79 0 7.43 1.38 16.53 8.57 10.79"/><path class="cls-1" d="M75.23,32.25v16.51c0,1.64-1.11,2.61-2.95,2.61-1.74,0-2.84-.97-2.84-2.61v-.22h-.11c-1.95,1.99-4.95,3.1-8.74,3.1-7.42,0-12.32-4.43-12.32-11.11s4.9-11.15,12.32-11.15c3.79,0,6.79,1.11,8.74,3.1h.11v-.22c0-1.59,1.11-2.61,2.84-2.61,1.84,0,2.95,1.02,2.95,2.61ZM69.44,40.53c0-3.94-3.16-6.68-7.68-6.68s-7.58,2.7-7.58,6.68,3.11,6.64,7.58,6.64,7.68-2.74,7.68-6.64Z"/><path class="cls-1" d="M108.18,40.53c0,6.68-4.89,11.11-12.32,11.11-3.79,0-6.79-1.11-8.74-3.1h-.11v.22c0,1.64-1.11,2.61-2.84,2.61-1.84,0-2.95-.97-2.95-2.61v-26.29c0-1.59,1.11-2.61,2.95-2.61,1.74,0,2.84,1.02,2.84,2.61v10h.11c1.95-1.99,4.95-3.1,8.74-3.1,7.42,0,12.32,4.43,12.32,11.15ZM102.28,40.53c0-3.98-3.11-6.68-7.58-6.68s-7.68,2.74-7.68,6.68,3.16,6.64,7.68,6.64,7.58-2.7,7.58-6.64Z"/><path class="cls-1" d="M137.39,32.21v17.08c0,6.59-4.84,10.58-12.84,10.58-4.84,0-8.74-1.19-10.69-3.36-.37-.44-.58-.93-.58-1.5,0-1.37,1.11-2.26,2.79-2.26.58,0,1.21.18,1.79.62,1.63,1.46,3.74,2.08,6.53,2.08,4.42,0,7.21-2.26,7.21-5.93v-1.64h-.11c-1.79,1.9-4.58,3.01-8.21,3.01-6.9,0-10.63-3.45-10.63-9.83v-8.81c0-1.59,1.11-2.61,2.89-2.61s2.89,1.02,2.89,2.61v8.28c0,3.85,2.21,5.89,6.26,5.89,4.26,0,6.9-2.48,6.9-6.59v-7.61c0-1.55,1.11-2.57,2.89-2.57s2.89,1.02,2.89,2.57Z"/><path class="cls-1" d="M149.18,22.47v26.29c0,1.64-1.05,2.61-2.89,2.61s-2.89-.97-2.89-2.61v-26.29c0-1.64,1.11-2.61,2.89-2.61s2.89.97,2.89,2.61Z"/><path class="cls-1" d="M167.71,29.37c8,0,13.53,4.51,13.53,11.15s-5.53,11.11-13.53,11.11-13.53-4.51-13.53-11.11,5.47-11.15,13.53-11.15ZM167.71,47.17c4.58,0,7.63-2.7,7.63-6.64s-3.05-6.68-7.63-6.68-7.63,2.7-7.63,6.68,3.11,6.64,7.63,6.64Z"/><path class="cls-1" d="M211.14,39.24v9.52c0,1.64-1.05,2.61-2.89,2.61s-2.89-.97-2.89-2.61v-8.98c0-3.85-2.21-5.93-6.37-5.93s-6.95,2.52-6.95,6.59v8.32c0,1.64-1.05,2.61-2.89,2.61s-2.89-.97-2.89-2.61v-16.51c0-1.64,1.11-2.61,2.89-2.61s2.89.97,2.89,2.61v.13h.11c1.79-1.9,4.63-3.01,8.32-3.01,6.95,0,10.69,3.45,10.69,9.87Z"/><path class="cls-1" d="M229.4,51.64c-8.32,0-13.79-4.51-13.79-11.11s5.47-11.15,13.53-11.15c7.32,0,12.9,4.43,12.9,9.83v.22c0,1.73-1.37,2.83-3.42,2.83h-16.9c.68,3.1,3.63,5.04,7.68,5.04,2.74,0,4.84-.93,6.11-2.17.63-.62,1.32-.88,2.16-.88,1.68,0,2.74.88,2.74,2.26,0,.53-.21,1.02-.63,1.46-2.32,2.35-5.95,3.67-10.37,3.67ZM221.72,38.36h14.69c-.79-2.83-3.58-4.65-7.26-4.65s-6.63,1.81-7.42,4.65Z"/><path class="cls-1" d="M273.68,44.8c.47,0,.79.2.79.56s-.31.56-.79.56h-3.77v4.76c0,.43-.24.69-.71.69s-.75-.26-.75-.69v-4.76h-15.63c-.51,0-.79-.23-.79-.63,0-.2.08-.33.24-.5l16.02-14.92c.27-.26.47-.36.79-.36.55,0,.82.3.82.79v14.5h3.77ZM254.17,44.8h14.29v-13.37l-14.29,13.37Z"/><path class="cls-1" d="M297.44,50.05c.47,0,.75.2.75.56s-.27.56-.75.56h-18.02c-.51,0-.82-.26-.82-.69v-.23c0-4.72,2.63-7.36,10.05-9.24,5.73-1.45,7.54-2.97,7.54-5.68,0-3.01-2.94-4.89-7.58-4.89-3.73,0-6.64,1.32-8.13,3.7-.12.2-.35.3-.63.3-.39,0-.71-.23-.71-.56,0-.13.04-.26.12-.4,1.65-2.61,5.1-4.16,9.35-4.16,5.5,0,9.07,2.34,9.07,6.01,0,3.37-1.96,5.15-8.28,6.7-6.91,1.68-9.31,3.93-9.35,8.02h17.39Z"/><path class="cls-1" d="M144.03,71.49c-.57.94-1.69,1.47-3.22,1.47-2.2,0-3.57-1.2-3.57-3.19v-7.32c0-.39.27-.63.69-.63s.71.24.71.63v2.14h4.24c.43,0,.69.19.69.53s-.27.53-.69.53h-4.24v4.13c0,1.35.84,2.11,2.24,2.11.98,0,1.63-.36,2.02-.99.1-.17.31-.29.57-.29.37,0,.63.24.63.57,0,.12-.04.24-.08.31Z"/><path class="cls-1" d="M153.29,69.09h-7.79c.22,1.68,1.67,2.81,3.81,2.81,1.3,0,2.36-.43,3-1.11.12-.14.33-.24.57-.24.39,0,.65.22.65.55,0,.14-.04.24-.14.36-.88.94-2.34,1.51-4.08,1.51-3.16,0-5.26-1.73-5.26-4.28s2.1-4.28,5.14-4.28,4.99,1.7,4.99,3.98c0,.46-.33.72-.9.72ZM145.54,68.06h7.32c-.29-1.56-1.69-2.61-3.67-2.61s-3.36,1.05-3.65,2.61Z"/><path class="cls-1" d="M163.83,71.42c-.9.99-2.32,1.54-4.04,1.54-3.04,0-5.14-1.75-5.14-4.28s2.1-4.28,5.14-4.28c1.53,0,2.83.43,3.83,1.3.12.12.16.24.16.38,0,.34-.27.57-.65.57-.22,0-.39-.09-.55-.22-.67-.6-1.65-.96-2.79-.96-2.2,0-3.71,1.3-3.71,3.22s1.51,3.22,3.71,3.22c1.28,0,2.3-.41,3.02-1.18.1-.1.29-.17.49-.17.39,0,.65.22.65.55,0,.12-.04.22-.12.33Z"/><path class="cls-1" d="M174.2,68.2v4.03c0,.39-.24.63-.69.63s-.71-.24-.71-.63v-3.92c0-1.87-1.08-2.85-3.12-2.85s-3.4,1.23-3.4,3.19v3.58c0,.39-.27.63-.69.63s-.71-.24-.71-.63v-10.93c0-.39.27-.63.71-.63s.69.24.69.63v4.58h.04c.73-.93,2-1.47,3.67-1.47,2.75,0,4.22,1.34,4.22,3.8Z"/><path class="cls-1" d="M185.8,71.49c-.57.94-1.69,1.47-3.22,1.47-2.2,0-3.57-1.2-3.57-3.19v-7.32c0-.39.27-.63.69-.63s.71.24.71.63v2.14h4.24c.43,0,.69.19.69.53s-.27.53-.69.53h-4.24v4.13c0,1.35.84,2.11,2.24,2.11.98,0,1.63-.36,2.02-.99.1-.17.31-.29.57-.29.37,0,.63.24.63.57,0,.12-.04.24-.08.31Z"/><path class="cls-1" d="M192.12,65.01c0,.38-.29.58-.69.58-2.3,0-3.59,1.18-3.59,3.58v3.05c0,.39-.27.63-.69.63-.45,0-.71-.24-.71-.63v-7.1c0-.41.27-.63.71-.63s.69.22.69.63v.93h.04c.67-1.04,1.88-1.61,3.55-1.61.41,0,.69.19.69.57Z"/><path class="cls-1" d="M201.7,65.13v7.1c0,.39-.24.63-.69.63s-.71-.24-.71-.63v-.81h-.04c-.77.98-2.14,1.54-3.89,1.54-2.94,0-4.91-1.71-4.91-4.28s1.98-4.28,4.91-4.28c1.75,0,3.12.56,3.89,1.54h.04v-.81c0-.41.27-.63.71-.63s.69.22.69.63ZM200.29,68.68c0-1.9-1.53-3.22-3.71-3.22s-3.71,1.3-3.71,3.22,1.51,3.22,3.71,3.22,3.71-1.3,3.71-3.22Z"/><path class="cls-1" d="M203.1,62.03c0-.45.35-.75.88-.75s.86.31.86.75-.35.74-.86.74-.88-.31-.88-.74ZM204.67,65.13v7.1c0,.39-.27.63-.69.63s-.71-.24-.71-.63v-7.1c0-.41.27-.63.71-.63s.69.22.69.63Z"/><path class="cls-1" d="M215.58,68.2v4.03c0,.39-.24.63-.69.63s-.71-.24-.71-.63v-3.92c0-1.87-1.08-2.85-3.12-2.85s-3.4,1.23-3.4,3.19v3.58c0,.39-.27.63-.69.63s-.71-.24-.71-.63v-7.1c0-.39.27-.63.71-.63s.69.24.69.63v.74h.04c.73-.93,2-1.47,3.67-1.47,2.75,0,4.22,1.34,4.22,3.8Z"/><path class="cls-1" d="M216.76,62.03c0-.45.35-.75.88-.75s.86.31.86.75-.35.74-.86.74-.88-.31-.88-.74ZM218.33,65.13v7.1c0,.39-.27.63-.69.63-.45,0-.71-.24-.71-.63v-7.1c0-.41.27-.63.71-.63s.69.22.69.63Z"/><path class="cls-1" d="M229.23,68.2v4.03c0,.39-.24.63-.69.63s-.71-.24-.71-.63v-3.92c0-1.87-1.08-2.85-3.12-2.85s-3.4,1.23-3.4,3.19v3.58c0,.39-.27.63-.69.63-.45,0-.71-.24-.71-.63v-7.1c0-.39.27-.63.71-.63s.69.24.69.63v.74h.04c.73-.93,2-1.47,3.67-1.47,2.75,0,4.22,1.34,4.22,3.8Z"/><path class="cls-1" d="M240.38,65.13v7.01c0,2.48-1.92,4.01-5.06,4.01-1.96,0-3.61-.51-4.34-1.35-.1-.12-.14-.22-.14-.36,0-.33.27-.57.67-.57.16,0,.31.05.43.15.71.69,1.83,1.06,3.34,1.06,2.28,0,3.69-1.1,3.69-2.9v-.87h-.04c-.79.98-2.16,1.49-3.93,1.49-2.9,0-4.87-1.68-4.87-4.22s1.98-4.2,4.87-4.2c1.75,0,3.14.53,3.93,1.49h.04v-.76c0-.41.27-.63.71-.63s.69.22.69.63ZM238.98,68.6c0-1.87-1.51-3.14-3.73-3.14s-3.69,1.27-3.69,3.14,1.49,3.15,3.69,3.15,3.73-1.27,3.73-3.15Z"/><path class="cls-1" d="M254.38,71.42c-.9.99-2.32,1.54-4.04,1.54-3.04,0-5.14-1.75-5.14-4.28s2.1-4.28,5.14-4.28c1.53,0,2.83.43,3.83,1.3.12.12.16.24.16.38,0,.34-.27.57-.65.57-.22,0-.39-.09-.55-.22-.67-.6-1.65-.96-2.79-.96-2.2,0-3.71,1.3-3.71,3.22s1.51,3.22,3.71,3.22c1.28,0,2.3-.41,3.02-1.18.1-.1.29-.17.49-.17.39,0,.65.22.65.55,0,.12-.04.22-.12.33Z"/><path class="cls-1" d="M264.21,69.09h-7.79c.22,1.68,1.67,2.81,3.81,2.81,1.3,0,2.36-.43,3-1.11.12-.14.33-.24.57-.24.39,0,.65.22.65.55,0,.14-.04.24-.14.36-.88.94-2.34,1.51-4.08,1.51-3.16,0-5.26-1.73-5.26-4.28s2.1-4.28,5.14-4.28,4.99,1.7,4.99,3.98c0,.46-.33.72-.9.72ZM256.46,68.06h7.32c-.29-1.56-1.69-2.61-3.67-2.61s-3.36,1.05-3.65,2.61Z"/><path class="cls-1" d="M275.36,68.2v4.03c0,.39-.24.63-.69.63s-.71-.24-.71-.63v-3.92c0-1.87-1.08-2.85-3.12-2.85s-3.4,1.23-3.4,3.19v3.58c0,.39-.27.63-.69.63s-.71-.24-.71-.63v-7.1c0-.39.27-.63.71-.63s.69.24.69.63v.74h.04c.73-.93,2-1.47,3.67-1.47,2.75,0,4.22,1.34,4.22,3.8Z"/><path class="cls-1" d="M283.25,71.49c-.57.94-1.69,1.47-3.22,1.47-2.2,0-3.57-1.2-3.57-3.19v-7.32c0-.39.27-.63.69-.63s.71.24.71.63v2.14h4.24c.43,0,.69.19.69.53s-.27.53-.69.53h-4.24v4.13c0,1.35.84,2.11,2.24,2.11.98,0,1.63-.36,2.02-.99.1-.17.31-.29.57-.29.37,0,.63.24.63.57,0,.12-.04.24-.08.31Z"/><path class="cls-1" d="M292.5,69.09h-7.79c.22,1.68,1.67,2.81,3.81,2.81,1.3,0,2.36-.43,3-1.11.12-.14.33-.24.57-.24.39,0,.65.22.65.55,0,.14-.04.24-.14.36-.88.94-2.34,1.51-4.08,1.51-3.16,0-5.26-1.73-5.26-4.28s2.1-4.28,5.14-4.28,4.99,1.7,4.99,3.98c0,.46-.33.72-.9.72ZM284.75,68.06h7.32c-.29-1.56-1.69-2.61-3.67-2.61s-3.36,1.05-3.65,2.61Z"/><path class="cls-1" d="M300,65.01c0,.38-.29.58-.69.58-2.3,0-3.59,1.18-3.59,3.58v3.05c0,.39-.27.63-.69.63s-.71-.24-.71-.63v-7.1c0-.41.27-.63.71-.63s.69.22.69.63v.93h.04c.67-1.04,1.88-1.61,3.55-1.61.41,0,.69.19.69.57Z"/></g></svg>