<?xml version="1.0" encoding="UTF-8"?><svg id="Layer_2" xmlns="http://www.w3.org/2000/svg" viewBox="0 0 300 203.6"><defs><style>.cls-1{fill:#109b80;}</style></defs><g id="Layer_4"><path class="cls-1" d="M141.71,133.36c0,16.54-12.83,34.84-46.92,34.84h-55.73c-3.96,0-7.18-3.21-7.18-7.18V54.15c0-3.96,3.21-7.18,7.18-7.18h51.52c26.51,0,43.55,13.37,43.55,31.32,0,8.45-3.79,21.11-20.41,25.16,19.15,2.29,27.98,16.01,27.98,29.91ZM88.28,73.96h-23.35v17.46h23.14c7.78,0,13.04-3.17,13.04-8.73,0-4.63-3.79-8.73-12.83-8.73ZM90.8,141.2c11.78,0,17.67-5.26,17.67-10.65,0-4.98-5.26-10.65-17.67-10.65h-25.88v21.3h25.88Z"/><polygon class="cls-1" points="135.4 172.67 153.96 196.08 164.96 168.3 135.4 172.67"/><polygon class="cls-1" points="149.99 199.23 131.43 175.81 120.43 203.6 149.99 199.23"/><polygon class="cls-1" points="1.85 19.4 29.67 30.3 25.2 .76 1.85 19.4"/><polygon class="cls-1" points="58.02 10.9 30.2 0 34.67 29.54 58.02 10.9"/><polygon class="cls-1" points="27.82 35.02 0 24.11 4.47 53.66 27.82 35.02"/><path d="M219.4,141.51c2.73,0,4.54,1.2,4.54,3.49,0,2.07-1.82,3.49-4.54,3.49h-9.6v13.1c0,2.62-1.82,4.15-4.54,4.15s-4.54-1.53-4.54-4.15v-13.1h-46.47c-2.99,0-4.93-1.64-4.93-3.82,0-1.64.78-2.62,2.08-3.93l48.15-45.07c1.3-1.31,2.73-2.18,5.06-2.18,3.12,0,5.19,1.86,5.19,4.91v43.11h9.6ZM200.71,141.51v-36.56l-38.94,36.56h38.94Z"/><path d="M287.67,158.1c2.73,0,4.54,1.2,4.54,3.49,0,2.07-1.82,3.49-4.54,3.49h-55.94c-2.99,0-4.93-1.64-4.93-4.15v-1.2c0-15.39,8.31-24.01,32.19-30.01,17-4.26,22.32-8.62,22.32-16.26,0-8.4-8.05-13.64-21.16-13.64-10.25,0-18.69,3.71-23.1,10.26-.91,1.31-2.21,2.07-4.28,2.07-2.47,0-4.28-1.53-4.28-3.71,0-.76.26-1.53.65-2.18,5.71-8.51,17.26-13.42,31.15-13.42,18.43,0,30.24,8.08,30.24,20.52,0,11.35-6.75,17.57-27.13,22.48-20.38,4.91-27.39,11.13-27.91,22.26h52.18Z"/></g></svg>